<svg xmlns="http://www.w3.org/2000/svg" viewBox="0 0 400 200" width="400" height="200">
  <!-- STU in bright blue -->
  <g fill="#4A90E2">
    <!-- S -->
    <path d="M20 50 Q20 30 40 30 L80 30 Q100 30 100 50 Q100 70 80 70 L60 70 Q40 70 40 90 Q40 110 60 110 L100 110 Q120 110 120 130 Q120 150 100 150 L40 150 Q20 150 20 130 Q20 110 40 110 L60 110 Q80 110 80 90 Q80 70 60 70 L20 70 Q0 70 0 50 Z"/>

    <!-- T -->
    <path d="M140 30 L240 30 L240 50 L210 50 L210 150 L190 150 L190 50 L140 50 Z"/>

    <!-- U -->
    <path d="M260 30 L280 30 L280 130 Q280 150 300 150 L320 150 Q340 150 340 130 L340 30 L360 30 L360 130 Q360 170 320 170 L300 170 Q260 170 260 130 Z"/>
  </g>

  <!-- ID in navy blue -->
  <g fill="#2C4F7C">
    <!-- I -->
    <path d="M20 200 L40 200 L40 350 L20 350 Z"/>

    <!-- D -->
    <path d="M80 200 L120 200 Q160 200 160 240 L160 310 Q160 350 120 350 L80 350 Z M100 220 L100 330 L120 330 Q140 330 140 310 L140 240 Q140 220 120 220 Z"/>
  </g>
</svg>